<svg xmlns="http://www.w3.org/2000/svg" xmlns:xlink="http://www.w3.org/1999/xlink" width="500" zoomAndPan="magnify" viewBox="0 0 500 500" height="500" preserveAspectRatio="xMidYMid meet" version="1.0"><defs><g/><clipPath id="5feca6fc68"><path d="M 124 85.984375 L 251 85.984375 L 251 225.484375 L 124 225.484375 Z M 124 85.984375 " clip-rule="nonzero"/></clipPath></defs><g fill="#ffffff" fill-opacity="1"><g transform="translate(122.460934, 262.068909)"><g><path d="M 22.632812 -23.0625 L 0.496094 -23.0625 L 0.496094 -14.484375 L 5.34375 -14.484375 L 5.34375 -18.707031 L 8.183594 -18.707031 L 8.183594 -4.386719 L 5.476562 -4.386719 L 5.476562 0 L 17.75 0 L 17.75 -4.386719 L 15.011719 -4.386719 L 15.011719 -18.707031 L 17.78125 -18.707031 L 17.78125 -14.484375 L 22.632812 -14.484375 Z M 22.632812 -23.0625 "/></g></g></g><g fill="#ffffff" fill-opacity="1"><g transform="translate(145.585734, 262.068909)"><g><path d="M 0.496094 -23.0625 L 0.496094 -18.773438 L 2.34375 -18.773438 L 2.34375 -10.625 C 2.34375 -3.132812 5.90625 0.363281 12.570312 0.5625 C 18.773438 0.5625 22.039062 -2.96875 22.039062 -10.789062 L 22.039062 -18.804688 L 23.820312 -18.804688 L 23.820312 -23.0625 L 14.054688 -23.0625 L 14.054688 -18.707031 L 15.835938 -18.707031 L 15.835938 -11.710938 C 15.835938 -6.039062 14.515625 -5.246094 12.503906 -5.246094 C 10.394531 -5.246094 9.203125 -6.367188 9.203125 -11.679688 L 9.203125 -18.804688 L 10.988281 -18.804688 L 10.988281 -23.0625 Z M 0.496094 -23.0625 "/></g></g></g><g fill="#ffffff" fill-opacity="1"><g transform="translate(169.898122, 262.068909)"><g><path d="M 26.097656 -18.804688 L 26.097656 -23.0625 L 16.167969 -23.0625 L 16.167969 -18.804688 L 18.410156 -18.804688 L 18.410156 -10.953125 L 10.328125 -23.0625 L 0.859375 -23.0625 L 0.859375 -18.804688 L 2.769531 -18.804688 L 2.769531 -4.257812 L 0.824219 -4.257812 L 0.824219 0 L 10.953125 0 L 10.953125 -4.257812 L 8.414062 -4.257812 L 8.414062 -12.570312 L 16.828125 0 L 23.917969 0 L 23.917969 -18.804688 Z M 26.097656 -18.804688 "/></g></g></g><g fill="#ffffff" fill-opacity="1"><g transform="translate(196.816581, 262.068909)"><g><path d="M 0.824219 -23.0625 L 0.824219 -18.707031 L 2.902344 -18.707031 L 2.902344 -4.386719 L 0.824219 -4.386719 L 0.824219 0 L 11.777344 0 L 11.777344 -4.386719 L 9.734375 -4.386719 L 9.734375 -18.707031 L 11.777344 -18.707031 L 11.777344 -23.0625 Z M 0.824219 -23.0625 "/></g></g></g><g fill="#ffffff" fill-opacity="1"><g transform="translate(209.418116, 262.068909)"><g><path d="M 0.824219 -23.0625 L 0.824219 -18.707031 L 2.871094 -18.707031 L 2.871094 -4.386719 L 0.824219 -4.386719 L 0.824219 0 L 13.097656 0 L 13.097656 -4.386719 L 9.734375 -4.386719 L 9.734375 -8.578125 L 16 -8.578125 L 16 -12.964844 L 9.734375 -12.964844 L 9.734375 -18.707031 L 14.714844 -18.707031 L 14.714844 -15.769531 L 20.554688 -15.769531 L 20.554688 -23.0625 Z M 0.824219 -23.0625 "/></g></g></g><g fill="#ffffff" fill-opacity="1"><g transform="translate(230.464657, 262.068909)"><g><path d="M 12.175781 -12.667969 C 12.042969 -13.230469 11.347656 -14.714844 11.152344 -15.339844 L 9.238281 -18.839844 L 10.953125 -18.839844 L 10.953125 -23.0625 L -0.328125 -23.0625 L -0.328125 -18.839844 L 1.285156 -18.839844 L 7.6875 -8.183594 L 7.6875 -4.289062 L 5.808594 -4.289062 L 5.808594 0 L 16.363281 0 L 16.363281 -4.289062 L 14.515625 -4.289062 L 14.515625 -8.117188 L 20.621094 -18.839844 L 22.402344 -18.839844 L 22.402344 -23.0625 L 13.527344 -23.0625 L 13.527344 -18.839844 L 15.339844 -18.839844 L 13.527344 -15.507812 C 13.164062 -14.714844 12.4375 -13.328125 12.304688 -12.667969 Z M 12.175781 -12.667969 "/></g></g></g><g clip-path="url(#5feca6fc68)"><path fill="#df9539" d="M 220.496094 194.867188 C 215.894531 201.058594 210.984375 205.195312 209.523438 204.109375 C 208.0625 203.023438 210.609375 197.125 215.207031 190.933594 C 219.804688 184.742188 224.71875 180.605469 226.175781 181.691406 C 227.636719 182.777344 225.09375 188.675781 220.496094 194.867188 Z M 232.558594 141.753906 C 232.4375 140.476562 232.3125 139.199219 232.167969 138.003906 C 231.761719 134.515625 231.050781 132.605469 230.011719 132.15625 C 229.609375 131.988281 229.171875 132.042969 228.808594 132.316406 C 228.09375 132.855469 227.703125 134.253906 227.875 135.640625 C 228.132812 137.683594 228.296875 139.742188 228.382812 141.753906 L 223.796875 141.753906 C 223.804688 140.277344 223.816406 138.8125 223.824219 137.398438 C 223.925781 124.902344 223.792969 119.753906 222.039062 119.171875 C 221.644531 119.039062 221.242188 119.09375 220.90625 119.332031 C 219.414062 120.394531 219.269531 125.488281 219.15625 133.703125 C 219.121094 136.457031 219.082031 139.246094 218.957031 141.753906 L 216.808594 141.753906 C 216.476562 139.003906 216.15625 136.476562 215.738281 135.316406 C 215.578125 134.875 215.199219 133.832031 214.378906 133.914062 C 213.304688 134 212.890625 135.722656 211.984375 140.617188 C 211.914062 140.988281 211.84375 141.371094 211.769531 141.753906 L 209.070312 141.753906 C 208.941406 133.542969 208.058594 129.125 206.386719 128.277344 C 205.894531 128.027344 205.429688 128.125 205.148438 128.292969 C 203.269531 129.183594 203.210938 132.964844 203.128906 138.175781 C 203.113281 139.320312 203.09375 140.527344 203.050781 141.753906 L 200.976562 141.753906 C 200.902344 140.210938 200.625 138.644531 199.746094 137.804688 C 199.109375 137.191406 198.523438 137.179688 198.148438 137.277344 C 196.90625 137.589844 196.207031 139.484375 195.652344 141.230469 C 195.585938 141.4375 195.53125 141.609375 195.488281 141.726562 C 195.484375 141.734375 195.480469 141.742188 195.476562 141.753906 L 192.4375 141.753906 C 192.273438 141.265625 192.097656 140.769531 191.886719 140.28125 C 191.449219 139.261719 190.363281 138.742188 189.125 138.964844 C 187.527344 139.246094 186.882812 140.417969 186.574219 141.753906 L 182.964844 141.753906 C 182.875 140.527344 182.828125 139.285156 182.84375 138.085938 C 182.882812 134.765625 182.355469 132.785156 181.269531 132.207031 C 180.789062 131.949219 180.238281 131.992188 179.757812 132.324219 C 178.886719 132.921875 178.378906 134.316406 178.546875 135.640625 C 178.800781 137.683594 178.964844 139.742188 179.046875 141.753906 L 174.46875 141.753906 C 174.472656 140.277344 174.484375 138.8125 174.496094 137.398438 C 174.59375 124.902344 174.460938 119.753906 172.710938 119.171875 C 172.3125 119.039062 171.910156 119.09375 171.574219 119.332031 C 170.082031 120.394531 169.9375 125.488281 169.828125 133.703125 C 169.789062 136.457031 169.75 139.246094 169.628906 141.753906 L 167.472656 141.753906 C 167.144531 139.003906 166.828125 136.476562 166.40625 135.316406 C 166.25 134.875 165.867188 133.832031 165.046875 133.914062 C 163.972656 134 163.558594 135.722656 162.652344 140.617188 C 162.582031 140.988281 162.511719 141.371094 162.441406 141.753906 L 159.738281 141.753906 C 159.609375 133.542969 158.726562 129.125 157.054688 128.277344 C 156.5625 128.027344 156.097656 128.125 155.816406 128.292969 C 153.9375 129.183594 153.882812 132.964844 153.800781 138.175781 C 153.78125 139.320312 153.761719 140.527344 153.722656 141.753906 L 151.644531 141.753906 C 151.570312 140.210938 151.292969 138.640625 150.414062 137.804688 C 149.777344 137.191406 149.191406 137.179688 148.816406 137.277344 C 147.574219 137.589844 146.878906 139.480469 146.320312 141.230469 C 146.253906 141.4375 146.195312 141.609375 146.15625 141.726562 C 146.152344 141.734375 146.148438 141.742188 146.144531 141.753906 L 143.109375 141.753906 C 142.941406 141.265625 142.765625 140.769531 142.554688 140.28125 C 142.117188 139.261719 141.03125 138.742188 139.792969 138.964844 C 138.273438 139.234375 137.496094 140.40625 137.058594 141.753906 L 135.269531 141.753906 C 137.011719 131.972656 141.246094 119.984375 151.175781 110.574219 L 150.195312 109.675781 C 154.617188 105.257812 159.664062 101.617188 165.167969 98.945312 L 165.390625 99.414062 C 170.542969 96.519531 175.855469 94.945312 180.957031 94.214844 C 183.050781 93.949219 185.179688 93.804688 187.339844 93.804688 C 189.5 93.804688 191.632812 93.949219 193.730469 94.214844 C 198.832031 94.945312 204.140625 96.519531 209.289062 99.414062 L 209.511719 98.945312 C 215.074219 101.648438 220.167969 105.335938 224.621094 109.816406 L 223.792969 110.574219 C 233.71875 119.984375 237.957031 131.972656 239.699219 141.753906 Z M 229.609375 141.753906 C 229.523438 139.660156 229.355469 137.542969 229.097656 135.484375 C 228.949219 134.304688 229.351562 133.378906 229.523438 133.289062 C 229.535156 133.292969 230.425781 133.695312 230.945312 138.148438 C 231.082031 139.300781 231.207031 140.523438 231.324219 141.753906 Z M 226.164062 159.535156 C 226.035156 159.683594 225.914062 159.765625 225.828125 159.765625 C 225.785156 159.765625 225.671875 159.765625 225.511719 159.601562 C 224.035156 158.113281 223.796875 150.582031 223.796875 142.984375 L 228.421875 142.984375 C 228.628906 150.949219 227.601562 157.90625 226.164062 159.535156 Z M 222.597656 137.390625 C 222.585938 138.90625 222.574219 140.359375 222.570312 141.753906 L 220.191406 141.753906 C 220.3125 139.238281 220.351562 136.460938 220.386719 133.722656 C 220.457031 128.5625 220.5625 120.773438 221.632812 120.328125 C 222.722656 121.074219 222.652344 130.503906 222.597656 137.390625 Z M 218.074219 148.730469 C 218.023438 148.898438 217.972656 149.039062 217.933594 149.152344 C 217.570312 147.960938 217.21875 145.195312 216.953125 142.984375 L 218.890625 142.984375 C 218.738281 145.339844 218.496094 147.363281 218.074219 148.730469 Z M 213.023438 141.753906 C 213.078125 141.453125 213.136719 141.148438 213.191406 140.839844 C 213.535156 139.007812 214.023438 136.363281 214.445312 135.402344 C 214.484375 135.488281 214.53125 135.601562 214.582031 135.738281 C 214.945312 136.746094 215.265625 139.226562 215.566406 141.753906 Z M 210.636719 146.230469 C 210.195312 147.054688 209.933594 147.21875 209.929688 147.253906 C 209.601562 147.027344 209.203125 145.460938 209.089844 143.972656 C 209.089844 143.636719 209.085938 143.308594 209.085938 142.984375 L 211.53125 142.984375 C 211.242188 144.402344 210.941406 145.664062 210.636719 146.230469 Z M 204.28125 141.753906 C 204.324219 140.53125 204.34375 139.335938 204.359375 138.195312 C 204.425781 134.132812 204.488281 129.925781 205.695312 129.398438 L 205.777344 129.417969 L 205.832031 129.375 C 206.148438 129.535156 207.65625 130.875 207.839844 141.753906 Z M 202.609375 147.550781 C 202.304688 149.78125 201.984375 150.730469 201.796875 151.121094 C 201.4375 150.355469 200.964844 148.121094 200.964844 144.925781 C 200.964844 144.695312 200.972656 144.421875 200.980469 144.121094 C 200.992188 143.769531 201 143.386719 201 142.984375 L 203.003906 142.984375 C 202.929688 144.519531 202.8125 146.0625 202.609375 147.550781 Z M 196.777344 141.753906 C 196.792969 141.703125 196.808594 141.65625 196.824219 141.605469 C 197.058594 140.871094 197.765625 138.644531 198.449219 138.46875 C 198.589844 138.433594 198.769531 138.570312 198.898438 138.695312 C 199.46875 139.238281 199.675781 140.496094 199.742188 141.753906 Z M 193.863281 144.980469 C 193.761719 144.921875 193.496094 144.695312 193.160156 143.828125 C 193.050781 143.550781 192.949219 143.265625 192.851562 142.984375 L 195.058594 142.984375 C 194.761719 143.792969 194.308594 144.835938 193.863281 144.980469 Z M 187.847656 141.753906 C 188.09375 140.882812 188.511719 140.324219 189.339844 140.175781 C 190.015625 140.054688 190.546875 140.277344 190.757812 140.769531 C 190.894531 141.089844 191.019531 141.421875 191.136719 141.753906 Z M 186.277344 143.882812 C 186.246094 144.238281 186.210938 144.585938 186.167969 144.949219 C 186.164062 144.980469 185.910156 148.179688 185.757812 149.132812 C 185.484375 150.855469 185.203125 151.511719 185.054688 151.75 C 184.402344 150.96875 183.496094 147.203125 183.074219 142.984375 L 186.371094 142.984375 C 186.332031 143.289062 186.304688 143.589844 186.277344 143.882812 Z M 180.28125 141.753906 C 180.191406 139.660156 180.023438 137.542969 179.765625 135.484375 C 179.648438 134.535156 180.03125 133.628906 180.457031 133.339844 C 180.59375 133.242188 180.652344 133.269531 180.6875 133.289062 C 181.050781 133.484375 181.65625 134.710938 181.609375 138.066406 C 181.597656 139.054688 181.644531 140.34375 181.746094 141.753906 Z M 176.832031 159.535156 C 176.703125 159.683594 176.578125 159.765625 176.496094 159.765625 C 176.453125 159.765625 176.339844 159.765625 176.179688 159.601562 C 174.699219 158.113281 174.464844 150.582031 174.464844 142.984375 L 179.089844 142.984375 C 179.300781 150.949219 178.269531 157.90625 176.832031 159.535156 Z M 173.265625 137.390625 C 173.253906 138.90625 173.242188 140.359375 173.238281 141.753906 L 170.859375 141.753906 C 170.980469 139.238281 171.019531 136.460938 171.058594 133.722656 C 171.128906 128.5625 171.234375 120.773438 172.300781 120.328125 C 173.394531 121.074219 173.320312 130.503906 173.265625 137.390625 Z M 168.742188 148.730469 C 168.691406 148.898438 168.640625 149.039062 168.597656 149.152344 C 168.238281 147.960938 167.886719 145.195312 167.621094 142.984375 L 169.558594 142.984375 C 169.40625 145.339844 169.160156 147.363281 168.742188 148.730469 Z M 163.691406 141.753906 C 163.746094 141.453125 163.804688 141.148438 163.863281 140.839844 C 164.199219 139.007812 164.691406 136.363281 165.113281 135.402344 C 165.15625 135.488281 165.199219 135.601562 165.25 135.738281 C 165.613281 136.746094 165.929688 139.226562 166.234375 141.753906 Z M 161.304688 146.230469 C 160.867188 147.054688 160.601562 147.21875 160.597656 147.253906 C 160.269531 147.027344 159.871094 145.460938 159.757812 143.972656 C 159.757812 143.636719 159.753906 143.308594 159.753906 142.984375 L 162.199219 142.984375 C 161.914062 144.402344 161.609375 145.664062 161.304688 146.230469 Z M 154.953125 141.753906 C 154.992188 140.53125 155.011719 139.335938 155.03125 138.195312 C 155.09375 134.132812 155.15625 129.925781 156.363281 129.398438 L 156.445312 129.417969 L 156.5 129.375 C 156.816406 129.535156 158.324219 130.875 158.507812 141.753906 Z M 153.277344 147.550781 C 152.972656 149.78125 152.652344 150.730469 152.46875 151.121094 C 152.109375 150.355469 151.636719 148.121094 151.636719 144.925781 C 151.636719 144.695312 151.644531 144.421875 151.648438 144.121094 C 151.65625 143.769531 151.667969 143.386719 151.667969 142.984375 L 153.671875 142.984375 C 153.597656 144.519531 153.480469 146.0625 153.277344 147.550781 Z M 147.445312 141.753906 C 147.457031 141.703125 147.476562 141.65625 147.492188 141.601562 C 147.726562 140.871094 148.4375 138.644531 149.121094 138.46875 C 149.257812 138.433594 149.4375 138.570312 149.566406 138.695312 C 150.136719 139.238281 150.339844 140.496094 150.410156 141.753906 Z M 144.53125 144.980469 C 144.429688 144.921875 144.164062 144.695312 143.824219 143.828125 C 143.714844 143.550781 143.617188 143.265625 143.519531 142.984375 L 145.726562 142.984375 C 145.429688 143.792969 144.976562 144.835938 144.53125 144.980469 Z M 138.355469 141.753906 C 138.695312 140.90625 139.195312 140.320312 140.007812 140.175781 C 140.683594 140.054688 141.214844 140.277344 141.425781 140.769531 C 141.5625 141.089844 141.691406 141.421875 141.804688 141.753906 Z M 148.289062 181.691406 C 149.75 180.605469 154.660156 184.742188 159.261719 190.933594 C 163.855469 197.125 166.402344 203.023438 164.941406 204.109375 C 163.484375 205.195312 158.570312 201.058594 153.972656 194.867188 C 149.375 188.675781 146.828125 182.777344 148.289062 181.691406 Z M 245.015625 179.796875 C 246.789062 174.164062 247.925781 168.191406 248.339844 161.992188 L 249.949219 162.46875 C 251.359375 127.285156 235.414062 110.4375 235.414062 110.4375 C 231.910156 106.4375 229.859375 106.042969 228.859375 106.25 C 223.785156 100.96875 217.921875 96.644531 211.480469 93.53125 C 211.132812 92.59375 209.945312 91.203125 206.382812 89.617188 C 206.382812 89.617188 200.019531 86.496094 188.839844 86.035156 L 188.839844 85.980469 C 188.328125 85.980469 187.832031 85.984375 187.339844 85.996094 C 186.847656 85.984375 186.351562 85.980469 185.839844 85.980469 L 185.839844 86.035156 C 174.660156 86.496094 168.300781 89.617188 168.300781 89.617188 C 164.734375 91.203125 163.546875 92.59375 163.199219 93.53125 C 156.773438 96.640625 150.917969 100.953125 145.851562 106.214844 C 144.777344 106.128906 142.78125 106.75 139.554688 110.4375 C 139.554688 110.4375 123.609375 127.285156 125.015625 162.46875 L 126.34375 162.074219 C 126.761719 168.21875 127.886719 174.136719 129.640625 179.722656 C 124.984375 181.578125 124.230469 186.359375 124.230469 186.359375 C 133.429688 210.421875 152.664062 225.488281 152.664062 225.488281 C 159.773438 223.601562 161.867188 219.210938 161.867188 219.210938 C 161.855469 219.199219 161.84375 219.1875 161.832031 219.175781 C 163.71875 219.304688 165.378906 218.914062 166.679688 217.929688 C 172.125 213.8125 169.359375 200.96875 160.503906 189.238281 C 151.644531 177.511719 140.054688 171.339844 134.609375 175.457031 C 134.394531 175.617188 134.195312 175.800781 134.007812 175.988281 C 132.613281 171.078125 131.75 165.910156 131.46875 160.5625 L 134.351562 159.710938 C 134.351562 159.710938 133.53125 152.546875 135.0625 142.984375 L 136.742188 142.984375 C 136.625 143.589844 136.546875 144.191406 136.480469 144.722656 L 136.425781 145.144531 L 137.644531 145.308594 L 137.699219 144.878906 C 137.785156 144.207031 137.878906 143.566406 138.003906 142.984375 L 142.222656 142.984375 C 142.367188 143.417969 142.511719 143.847656 142.679688 144.277344 C 143.042969 145.210938 143.441406 145.773438 143.921875 146.050781 C 144.285156 146.253906 144.675781 146.289062 145.046875 146.140625 C 145.96875 145.785156 146.542969 144.425781 147.027344 142.984375 L 150.4375 142.984375 C 150.433594 143.390625 150.425781 143.769531 150.421875 144.089844 C 150.410156 144.40625 150.40625 144.6875 150.40625 144.925781 C 150.40625 145.695312 150.460938 152.425781 152.410156 152.558594 C 153.261719 152.617188 153.9375 151.816406 154.496094 147.71875 C 154.710938 146.167969 154.828125 144.566406 154.902344 142.984375 L 158.523438 142.984375 C 158.523438 143.320312 158.527344 143.664062 158.527344 144.019531 C 158.644531 145.558594 159.03125 148.183594 160.328125 148.457031 C 161.28125 148.660156 161.960938 147.613281 162.390625 146.8125 C 162.785156 146.070312 163.125 144.652344 163.457031 142.984375 L 166.382812 142.984375 C 167.128906 149.140625 167.476562 150.726562 168.507812 150.820312 C 169.253906 150.886719 169.628906 150.027344 169.917969 149.09375 C 170.375 147.613281 170.632812 145.464844 170.789062 142.984375 L 173.238281 142.984375 C 173.238281 152.464844 173.574219 158.722656 175.304688 160.46875 C 176.007812 161.179688 177.015625 161.191406 177.757812 160.351562 C 179.546875 158.316406 180.53125 150.953125 180.320312 142.984375 L 181.851562 142.984375 C 182.289062 147.621094 183.320312 152.929688 185.003906 153.074219 C 185.957031 153.152344 186.535156 152.070312 186.972656 149.324219 C 187.132812 148.324219 187.382812 145.179688 187.390625 145.078125 C 187.433594 144.734375 187.46875 144.367188 187.503906 143.996094 C 187.539062 143.636719 187.570312 143.300781 187.613281 142.984375 L 191.554688 142.984375 C 191.699219 143.417969 191.84375 143.847656 192.011719 144.277344 C 192.378906 145.210938 192.769531 145.773438 193.253906 146.050781 C 193.617188 146.253906 194.007812 146.289062 194.378906 146.140625 C 195.300781 145.785156 195.871094 144.425781 196.363281 142.984375 L 199.769531 142.984375 C 199.769531 143.390625 199.757812 143.769531 199.75 144.089844 C 199.746094 144.40625 199.738281 144.6875 199.738281 144.925781 C 199.738281 145.695312 199.792969 152.425781 201.742188 152.558594 C 202.589844 152.609375 203.265625 151.816406 203.828125 147.71875 C 204.039062 146.167969 204.160156 144.566406 204.234375 142.984375 L 207.855469 142.984375 C 207.859375 143.320312 207.859375 143.664062 207.859375 144.019531 C 207.976562 145.558594 208.363281 148.183594 209.660156 148.457031 C 210.613281 148.660156 211.292969 147.613281 211.722656 146.8125 C 212.117188 146.070312 212.457031 144.652344 212.785156 142.984375 L 215.714844 142.984375 C 216.457031 149.140625 216.808594 150.726562 217.839844 150.820312 C 218.589844 150.886719 218.960938 150.027344 219.25 149.09375 C 219.703125 147.613281 219.964844 145.464844 220.121094 142.984375 L 222.570312 142.984375 C 222.574219 152.464844 222.90625 158.722656 224.636719 160.46875 C 224.980469 160.8125 225.390625 160.996094 225.828125 160.996094 C 226.285156 160.996094 226.707031 160.78125 227.089844 160.351562 C 228.878906 158.320312 229.859375 150.953125 229.652344 142.984375 L 231.441406 142.984375 C 232.125 150.078125 232.523438 152.789062 233.871094 152.9375 C 234.75 153.039062 235.425781 152.046875 236.285156 149.421875 L 235.113281 149.039062 C 234.558594 150.734375 234.1875 151.371094 234.003906 151.601562 C 233.429688 150.632812 233 146.339844 232.679688 142.984375 L 239.90625 142.984375 C 241.4375 152.546875 240.617188 159.710938 240.617188 159.710938 L 243.214844 160.476562 C 242.9375 165.914062 242.050781 171.171875 240.625 176.152344 C 240.386719 175.898438 240.132812 175.664062 239.855469 175.457031 C 234.410156 171.339844 222.820312 177.511719 213.964844 189.238281 C 205.109375 200.96875 202.339844 213.8125 207.785156 217.929688 C 209.089844 218.914062 210.746094 219.304688 212.636719 219.175781 C 212.621094 219.1875 212.609375 219.199219 212.601562 219.210938 C 212.601562 219.210938 214.691406 223.601562 221.800781 225.488281 C 221.800781 225.488281 241.035156 210.421875 250.234375 186.359375 C 250.234375 186.359375 249.503906 181.707031 245.015625 179.796875 " fill-opacity="1" fill-rule="nonzero"/></g></svg>